<svg height="512pt" viewBox="-43 0 512 512.00025" width="512pt" xmlns="http://www.w3.org/2000/svg"><path d="m36.160156 390.609375c-50.558594-50.558594-47.726562-133.363281 6.164063-180.351563l202.246093-176.332031 148.277344 148.277344-176.332031 202.242187c-46.992187 53.894532-129.792969 56.726563-180.355469 6.164063zm0 0" fill="#444346"/><path d="m74.558594 242.492188 202.246094-176.332032-32.234376-32.234375-202.246093 176.332031c-53.894531 46.988282-56.722657 129.792969-6.164063 180.351563 5.511719 5.515625 11.410156 10.390625 17.601563 14.636719-34.703125-50.589844-27.222657-120.890625 20.796875-162.753906zm0 0" fill="#222223"/><path d="m359.0625 220.945312 33.78125-38.742187-148.273438-148.277344-38.746093 33.78125zm0 0" fill="#222223"/><path d="m374.566406 212.273438-160.066406-160.066407c-5.140625-5.140625-5.140625-13.472656 0-18.613281l29.738281-29.738281c5.136719-5.140625 13.472657-5.140625 18.613281 0l160.066407 160.066406c5.140625 5.140625 5.140625 13.472656 0 18.613281l-29.738281 29.738282c-5.140626 5.140624-13.472657 5.140624-18.613282 0zm0 0" fill="#f46262"/><path d="m246.730469 65.828125 29.742187-29.738281c5.136719-5.140625 13.46875-5.140625 18.609375 0l-32.234375-32.234375c-5.136718-5.140625-13.472656-5.140625-18.609375 0l-29.742187 29.738281c-5.136719 5.140625-5.136719 13.472656 0 18.613281l32.234375 32.230469c-5.136719-5.136719-5.136719-13.472656 0-18.609375zm0 0" fill="#d65b5b"/><path d="m126.878906 287.21875c-26.058594 0-47.960937 19.570312-50.882812 45.464844l-17.664063 156.523437h137.09375l-17.660156-156.523437c-2.921875-25.890625-24.828125-45.464844-50.886719-45.464844zm0 0" fill="#d8d7da"/><path d="m191.109375 450.960938h-97.554687l13.347656-118.273438c2.320312-20.558594 16.605468-37.117188 35.429687-43.074219-4.886719-1.550781-10.078125-2.390625-15.453125-2.390625-26.058594 0-47.960937 19.570313-50.882812 45.464844l-17.664063 156.519531h137.09375zm0 0" fill="#c6c5ca"/><path d="m223.167969 512h-192.933594c-2.699219 0-4.882813-2.1875-4.882813-4.882812v-35.816407c0-2.699219 2.183594-4.886719 4.882813-4.886719h192.933594c2.699219 0 4.886719 2.1875 4.886719 4.886719v35.816407c0 2.695312-2.1875 4.882812-4.886719 4.882812zm0 0" fill="#eaeaea"/><path d="m56.253906 507.117188v-35.816407c0-2.699219 2.1875-4.886719 4.886719-4.886719h-30.90625c-2.699219 0-4.882813 2.1875-4.882813 4.886719v35.816407c0 2.695312 2.183594 4.882812 4.882813 4.882812h30.90625c-2.699219 0-4.886719-2.1875-4.886719-4.882812zm0 0" fill="#d8d7da"/><path d="m157.175781 338.285156c0 16.730469-13.566406 30.292969-30.296875 30.292969-16.730468 0-30.292968-13.5625-30.292968-30.292969 0-16.730468 13.5625-30.292968 30.292968-30.292968 16.730469 0 30.296875 13.5625 30.296875 30.292968zm0 0" fill="#ff7956"/><path d="m117.191406 338.285156c0-13.113281 8.332032-24.277344 19.992188-28.492187-3.21875-1.164063-6.6875-1.800781-10.304688-1.800781-16.730468 0-30.292968 13.5625-30.292968 30.292968 0 16.730469 13.5625 30.292969 30.292968 30.292969 3.617188 0 7.085938-.636719 10.304688-1.800781-11.660156-4.214844-19.992188-15.378906-19.992188-28.492188zm0 0" fill="#ff6243"/></svg>